<svg width="84" height="84" viewBox="0 0 84 84" fill="none" xmlns="http://www.w3.org/2000/svg">
<ellipse cx="42" cy="37.7521" rx="30" ry="29.7521" fill="#202020"/>
<g filter="url(#filter0_d_107_85)">
<path d="M42 8C25.44 8 12 21.44 12 38C12 54.56 25.44 68 42 68C58.56 68 72 54.56 72 38C72 21.44 58.56 8 42 8ZM55.92 28.4C55.47 33.14 53.52 44.66 52.53 49.97C52.11 52.22 51.27 52.97 50.49 53.06C48.75 53.21 47.43 51.92 45.75 50.81C43.11 49.07 41.61 47.99 39.06 46.31C36.09 44.36 38.01 43.28 39.72 41.54C40.17 41.09 47.85 34.1 48 33.47C48.0208 33.3746 48.0181 33.2755 47.9919 33.1814C47.9658 33.0873 47.9171 33.001 47.85 32.93C47.67 32.78 47.43 32.84 47.22 32.87C46.95 32.93 42.75 35.72 34.56 41.24C33.36 42.05 32.28 42.47 31.32 42.44C30.24 42.41 28.2 41.84 26.67 41.33C24.78 40.73 23.31 40.4 23.43 39.35C23.49 38.81 24.24 38.27 25.65 37.7C34.41 33.89 40.23 31.37 43.14 30.17C51.48 26.69 53.19 26.09 54.33 26.09C54.57 26.09 55.14 26.15 55.5 26.45C55.8 26.69 55.89 27.02 55.92 27.26C55.89 27.44 55.95 27.98 55.92 28.4Z" fill="#D4D0C8"/>
</g>
<defs>
<filter id="filter0_d_107_85" x="0" y="0" width="84" height="84" filterUnits="userSpaceOnUse" color-interpolation-filters="sRGB">
<feFlood flood-opacity="0" result="BackgroundImageFix"/>
<feColorMatrix in="SourceAlpha" type="matrix" values="0 0 0 0 0 0 0 0 0 0 0 0 0 0 0 0 0 0 127 0" result="hardAlpha"/>
<feOffset dy="4"/>
<feGaussianBlur stdDeviation="6"/>
<feComposite in2="hardAlpha" operator="out"/>
<feColorMatrix type="matrix" values="0 0 0 0 0 0 0 0 0 0 0 0 0 0 0 0 0 0 0.79 0"/>
<feBlend mode="normal" in2="BackgroundImageFix" result="effect1_dropShadow_107_85"/>
<feBlend mode="normal" in="SourceGraphic" in2="effect1_dropShadow_107_85" result="shape"/>
</filter>
</defs>
</svg>
