<svg width="60" height="60" viewBox="0 0 60 60" fill="none" xmlns="http://www.w3.org/2000/svg">
<path d="M30 0C46.5685 0 60 13.4315 60 30C60 46.5685 46.5685 60 30 60C13.4315 60 0 46.5685 0 30C0 13.4315 13.4315 0 30 0ZM21.2783 13C20.1413 13 19.2227 13.9496 19.2227 15.125V17.25H13.0557C11.9187 17.25 11.0001 18.1996 11 19.375C11 20.5504 11.919 21.5 13.0625 21.5H26.5713L26.5391 21.5801C25.6204 24.1898 24.2265 26.5604 22.46 28.5791C21.6056 27.7889 20.7963 26.9318 20.0576 26.0088L19.4023 25.1992C18.6764 24.2961 17.3785 24.1764 16.5049 24.9268C15.6314 25.6772 15.5163 27.0188 16.2422 27.9219L16.8906 28.7314C17.6679 29.6944 18.5032 30.6049 19.3896 31.4482C18.4519 32.1521 17.4561 32.7827 16.4092 33.3271L14.1924 34.4766C13.1777 35.0013 12.767 36.2761 13.2744 37.3252C13.782 38.3742 15.0154 38.799 16.0303 38.2744L18.2588 37.1328C19.8583 36.3027 21.3553 35.3063 22.7236 34.1641C24.0597 35.0937 25.4728 35.9037 26.9502 36.5811L30.1885 38.0684L27.6318 44.0127C27.1695 45.0817 27.6379 46.3363 28.6719 46.8145C29.706 47.2925 30.9202 46.8148 31.3828 45.7393L32.668 42.751H42.7852L44.0703 45.7393C44.5265 46.8081 45.7471 47.2859 46.7812 46.8145C47.8152 46.3429 48.2836 45.0884 47.8213 44.0127L39.5996 24.8867C39.272 24.1165 38.5329 23.6251 37.7236 23.625C36.9143 23.625 36.1753 24.1165 35.8477 24.8867L31.8516 34.1836L28.6143 32.6963C27.625 32.2381 26.6739 31.7201 25.7617 31.1357C27.7595 28.7783 29.3469 26.0358 30.4004 23.0342L30.9395 21.5H31.5566C32.6936 21.4999 33.6123 20.5503 33.6123 19.375C33.6122 18.1997 32.6935 17.2501 31.5566 17.25H23.334V15.125C23.334 13.9496 22.4153 13.0001 21.2783 13ZM40.9541 38.5H34.4922L37.7236 30.9834L40.9541 38.5Z" fill="#D4D0C8"/>
</svg>
