<svg width="84" height="83" viewBox="0 0 84 83" fill="none" xmlns="http://www.w3.org/2000/svg">
<circle cx="41.9941" cy="38" r="30" fill="#202020"/>
<g filter="url(#filter0_d_107_82)">
<path d="M41.9995 8C25.4248 8 12 21.4248 12 37.9995C11.9946 44.2972 13.9732 50.4367 17.6551 55.5461C21.3369 60.6556 26.5348 64.4753 32.5106 66.463C34.0106 66.7239 34.5746 65.824 34.5746 65.035C34.5746 64.324 34.5356 61.963 34.5356 59.4491C26.9997 60.838 25.0498 57.6131 24.4498 55.9241C24.1108 55.0602 22.6498 52.3992 21.3748 51.6852C20.3249 51.1242 18.8249 49.7352 21.3358 49.6992C23.6998 49.6603 25.3858 51.8742 25.9498 52.7742C28.6497 57.3101 32.9606 56.0351 34.6856 55.2492C34.9496 53.2992 35.7356 51.9882 36.5996 51.2382C29.9247 50.4882 22.9498 47.8993 22.9498 36.4245C22.9498 33.1605 24.1108 30.4636 26.0248 28.3636C25.7248 27.6136 24.6748 24.5387 26.3248 20.4138C26.3248 20.4138 28.8357 19.6248 34.5746 23.4857C37.017 22.8097 39.5402 22.4695 42.0745 22.4747C44.6244 22.4747 47.1744 22.8107 49.5743 23.4857C55.3132 19.5858 57.8242 20.4138 57.8242 20.4138C59.4742 24.5387 58.4242 27.6136 58.1242 28.3636C60.0351 30.4636 61.1991 33.1245 61.1991 36.4245C61.1991 47.9383 54.1883 50.4882 47.5134 51.2382C48.5994 52.1742 49.5383 53.9742 49.5383 56.7881C49.5383 60.7991 49.4993 64.024 49.4993 65.038C49.4993 65.824 50.0633 66.7599 51.5633 66.4599C57.5167 64.4473 62.6897 60.6193 66.3547 55.5143C70.0198 50.4093 71.9926 44.2839 71.9959 37.9995C71.9959 21.4248 58.5712 8 41.9965 8" fill="#D4D0C8"/>
</g>
<defs>
<filter id="filter0_d_107_82" x="0" y="0" width="83.996" height="82.5173" filterUnits="userSpaceOnUse" color-interpolation-filters="sRGB">
<feFlood flood-opacity="0" result="BackgroundImageFix"/>
<feColorMatrix in="SourceAlpha" type="matrix" values="0 0 0 0 0 0 0 0 0 0 0 0 0 0 0 0 0 0 127 0" result="hardAlpha"/>
<feOffset dy="4"/>
<feGaussianBlur stdDeviation="6"/>
<feComposite in2="hardAlpha" operator="out"/>
<feColorMatrix type="matrix" values="0 0 0 0 0 0 0 0 0 0 0 0 0 0 0 0 0 0 0.79 0"/>
<feBlend mode="normal" in2="BackgroundImageFix" result="effect1_dropShadow_107_82"/>
<feBlend mode="normal" in="SourceGraphic" in2="effect1_dropShadow_107_82" result="shape"/>
</filter>
</defs>
</svg>
