<svg width="60" height="60" viewBox="0 0 60 60" fill="none" xmlns="http://www.w3.org/2000/svg">
<path d="M30 0C46.5685 0 60 13.4315 60 30C60 46.5685 46.5685 60 30 60C13.4315 60 0 46.5685 0 30C0 13.4315 13.4315 0 30 0ZM30 10C24.6957 10 19.6081 12.1067 15.8574 15.8574C12.1067 19.6081 10 24.6957 10 30C10 35.3043 12.1067 40.3919 15.8574 44.1426C19.6081 47.8933 24.6957 50 30 50C35.3043 50 40.3919 47.8933 44.1426 44.1426C47.8933 40.3919 50 35.3043 50 30C50 24.6957 47.8933 19.6081 44.1426 15.8574C40.3919 12.1067 35.3043 10 30 10ZM30 12.5C32.2981 12.5 34.5741 12.9526 36.6973 13.832C38.8204 14.7115 40.7491 16.001 42.374 17.626C43.999 19.2509 45.2885 21.1796 46.168 23.3027C47.0474 25.4259 47.5 27.7019 47.5 30C47.5 32.2981 47.0474 34.5741 46.168 36.6973C45.2885 38.8204 43.999 40.7491 42.374 42.374C40.7491 43.999 38.8204 45.2885 36.6973 46.168C34.5741 47.0474 32.2981 47.5 30 47.5V12.5Z" fill="#D4D0C8"/>
</svg>
